<svg width="140" height="39" viewBox="0 0 140 39" fill="none" xmlns="http://www.w3.org/2000/svg">
<rect x="16.0913" y="3.65997" width="8.04582" height="32.1833" fill="white"/>
<rect x="24.1372" y="6.67694" width="8.04582" height="26.1489" fill="white"/>
<rect x="8.0459" y="0.6427" width="8.04582" height="37.7148" fill="white"/>
<rect y="0.642639" width="8.04582" height="37.7148" fill="white"/>
<path d="M43.1563 12.6563C40.7 12.6563 38.861 10.7659 38.771 8.14244H40.52C40.61 9.95572 41.9089 11.2289 43.6836 11.2289C45.1496 11.2289 46.2556 10.3544 46.6414 8.96549H48.4418V12.4634H46.7571V10.0715H46.3842C46.127 12.0133 44.5709 12.6563 43.1563 12.6563ZM42.7448 8.56682V7.30653H48.4418V8.56682H42.7448ZM38.771 7.75664C38.8739 5.13317 40.9058 3.24274 43.6964 3.24274C45.6383 3.24274 47.2201 4.06578 48.0303 5.39038L46.8214 6.70211C46.3585 5.4161 45.2139 4.67021 43.7221 4.67021C41.9217 4.67021 40.61 5.95622 40.52 7.75664H38.771Z" fill="white"/>
<path d="M54.7472 12.6692C51.918 12.6692 49.9504 10.8302 49.8603 8.14244H51.6093C51.6993 9.96858 52.9596 11.2417 54.7472 11.2417C56.5347 11.2417 57.795 9.96858 57.885 8.14244H59.634C59.544 10.8302 57.5764 12.6692 54.7472 12.6692ZM49.8603 7.75664C49.9504 5.08173 51.918 3.2556 54.7472 3.2556C57.5764 3.2556 59.544 5.08173 59.634 7.75664H57.885C57.795 5.9305 56.5347 4.67021 54.7472 4.67021C52.9596 4.67021 51.6993 5.9305 51.6093 7.75664H49.8603Z" fill="white"/>
<path d="M63.5894 12.4634L59.9371 3.46136H61.8662L64.1295 9.19697C64.4125 9.90428 64.5025 10.3672 64.5025 11.1517V11.2417H66.3286L65.8399 12.4634H63.5894ZM64.914 10.8559C64.9397 10.2644 65.0426 9.82712 65.2869 9.20983L67.6018 3.46136H69.4279L66.4829 10.8559H64.914Z" fill="white"/>
<path d="M75.0788 12.4634H73.3298V5.23605H75.0788V12.4634ZM78.3324 4.85025H70.0762V3.46136H78.3324V4.85025Z" fill="white"/>
<path d="M79.5333 12.4634V3.46136H81.2823V12.4634H79.5333ZM81.6938 12.4634V11.1388H86.6707V12.4634H81.6938ZM81.6938 8.52824V7.26795H86.4135V8.52824H81.6938ZM81.6938 4.78595V3.46136H86.6707V4.78595H81.6938Z" fill="white"/>
<path d="M92.5363 12.6563C89.7585 12.6563 87.7524 10.7659 87.6495 8.14244H89.3856C89.4756 9.95572 90.7874 11.2289 92.562 11.2289C94.1696 11.2289 95.3527 10.2901 95.6613 8.56682L96.9859 9.94286C96.2658 11.6147 94.6325 12.6563 92.5363 12.6563ZM87.6495 7.75664C87.7524 5.13317 89.7585 3.24274 92.5363 3.24274C94.6325 3.24274 96.2658 4.28441 96.9859 5.95622L95.6613 7.33225C95.3527 5.609 94.1696 4.67021 92.562 4.67021C90.7874 4.67021 89.4756 5.95622 89.3856 7.75664H87.6495Z" fill="white"/>
<path d="M98.3965 6.79213V3.46136H100.133V6.79213H98.3965ZM105.071 6.79213V3.46136H106.807V6.79213H105.071ZM98.3965 8.56682V7.17793H106.807V8.56682H98.3965ZM98.3965 12.4634V8.95263H100.133V12.4634H98.3965ZM105.071 12.4634V8.95263H106.807V12.4634H105.071Z" fill="white"/>
<path d="M41.3173 24.0087V22.6069H42.912C44.7638 22.6069 46.0498 21.308 46.0498 19.4948C46.0498 17.6686 44.7638 16.3955 42.912 16.3955H41.3173V15.0066H42.912C45.8055 15.0066 47.7988 16.8456 47.7988 19.4948C47.7988 22.1568 45.8055 24.0087 42.912 24.0087H41.3173ZM39.1697 24.0087V15.0066H40.9058V24.0087H39.1697Z" fill="white"/>
<path d="M49.3045 24.0087V15.0066H51.0535V24.0087H49.3045ZM51.465 24.0087V22.6841H56.4419V24.0087H51.465ZM51.465 20.0735V18.8132H56.1847V20.0735H51.465ZM51.465 16.3312V15.0066H56.4419V16.3312H51.465Z" fill="white"/>
<path d="M61.5772 24.2273C59.2495 24.2273 57.8349 23.1856 57.2305 21.6681L58.6708 20.575C58.9537 21.951 60.0083 22.8898 61.6286 22.8898C62.9018 22.8898 63.7634 22.3626 63.892 21.5652H65.6281C65.4095 23.2371 63.712 24.2273 61.5772 24.2273ZM59.301 17.6815C59.4424 18.466 60.3684 18.5303 61.6415 18.6074C63.0047 18.6846 65.5767 18.7875 65.6539 21.0894H63.892C63.7377 20.1763 62.6446 20.0863 61.3972 20.0092C60.1883 19.932 57.6549 19.8677 57.6034 17.6815H59.301ZM57.6292 17.2057C57.8735 15.5981 59.4939 14.7365 61.41 14.7365C63.5062 14.7365 64.9594 15.6753 65.4995 16.9356L63.982 17.9001C63.7377 16.8456 62.8118 16.074 61.3714 16.074C60.214 16.074 59.4681 16.5112 59.3138 17.2057H57.6292Z" fill="white"/>
<path d="M67.3137 15.0066H69.0498V24.0087H67.3137V15.0066Z" fill="white"/>
<path d="M74.9424 24.2016C72.4861 24.2016 70.6471 22.3111 70.5571 19.6877H72.3061C72.3961 21.5009 73.695 22.7741 75.4697 22.7741C76.9357 22.7741 78.0417 21.8996 78.4275 20.5107H80.2279V24.0087H78.5432V21.6167H78.1703C77.9131 23.5586 76.357 24.2016 74.9424 24.2016ZM74.5309 20.112V18.8518H80.2279V20.112H74.5309ZM70.5571 19.3019C70.66 16.6784 72.6919 14.788 75.4825 14.788C77.4244 14.788 79.0062 15.611 79.8164 16.9356L78.6075 18.2473C78.1446 16.9613 77 16.2154 75.5082 16.2154C73.7078 16.2154 72.3961 17.5014 72.3061 19.3019H70.5571Z" fill="white"/>
<path d="M84.6306 18.4531C84.219 17.7972 84.0776 17.3471 84.0776 16.5498V16.4726H82.02V15.0066H84.3219L87.8585 20.5493C88.27 21.2052 88.4114 21.6553 88.4114 22.4526V22.5426H90.4691V24.0087H88.1671L84.6306 18.4531ZM82.02 24.0087V16.8584H83.6661V24.0087H82.02ZM88.823 22.1568V14.9937H90.4691V22.1568H88.823Z" fill="white"/>
<path d="M39.1697 35.5539V26.5518H40.9186V35.5539H39.1697ZM41.3302 31.7987V30.5384H45.7283V31.7987H41.3302ZM41.3302 27.8764V26.5518H46.0498V27.8764H41.3302Z" fill="white"/>
<path d="M47.2826 35.5539V26.5518H49.0316V35.5539H47.2826ZM49.4431 35.5539V34.2293H54.4199V35.5539H49.4431ZM49.4431 31.6187V30.3584H54.1627V31.6187H49.4431ZM49.4431 27.8764V26.5518H54.4199V27.8764H49.4431Z" fill="white"/>
<path d="M59.5553 35.7725C57.2276 35.7725 55.813 34.7308 55.2085 33.2133L56.6489 32.1202C56.9318 33.4963 57.9863 34.4351 59.6067 34.4351C60.8798 34.4351 61.7415 33.9078 61.8701 33.1105H63.6062C63.3876 34.7823 61.69 35.7725 59.5553 35.7725ZM57.279 29.2267C57.4205 30.0112 58.3464 30.0755 59.6196 30.1526C60.9827 30.2298 63.5547 30.3327 63.6319 32.6346H61.8701C61.7158 31.7216 60.6226 31.6315 59.3752 31.5544C58.1664 31.4772 55.6329 31.4129 55.5815 29.2267H57.279ZM55.6072 28.7509C55.8515 27.1434 57.4719 26.2817 59.3881 26.2817C61.4843 26.2817 62.9375 27.2205 63.4776 28.4808L61.9601 29.4453C61.7158 28.3908 60.7898 27.6192 59.3495 27.6192C58.1921 27.6192 57.4462 28.0564 57.2919 28.7509H55.6072Z" fill="white"/>
<path d="M69.2893 35.5539H67.5403V28.3265H69.2893V35.5539ZM72.5429 27.9407H64.2867V26.5518H72.5429V27.9407Z" fill="white"/>
<path d="M73.7438 26.5518H75.4799V35.5539H73.7438V26.5518Z" fill="white"/>
<path d="M80.2423 35.5539L76.59 26.5518H78.519L80.7824 32.2874C81.0653 32.9947 81.1553 33.4577 81.1553 34.2422V34.3322H82.9815L82.4928 35.5539H80.2423ZM81.5668 33.9464C81.5926 33.3548 81.6955 32.9176 81.9398 32.3003L84.2546 26.5518H86.0807L83.1358 33.9464H81.5668Z" fill="white"/>
<path d="M85.0922 35.5539L88.2558 28.1465H89.8119C89.7733 28.6866 89.6704 29.111 89.4132 29.6897L86.8798 35.5539H85.0922ZM88.2944 33.2905L88.8474 32.0174H91.1622L91.6766 33.2905H88.2944ZM88.423 27.7478L88.9374 26.5518H91.0722L94.9559 35.5539H93.0784L90.6092 29.7025C90.3134 28.9952 90.2106 28.5323 90.2106 27.7478H88.423Z" fill="white"/>
<path d="M96.0104 35.5539V34.165H103.019V35.5539H96.0104ZM96.0104 33.7792V26.5518H97.7465V33.7792H96.0104Z" fill="white"/>
<rect x="128.973" y="0.854736" width="11.0277" height="11.0277" fill="white"/>
<rect x="120.914" y="0.854736" width="8.05874" height="37.3247" fill="white"/>
<rect x="112.849" y="8.92407" width="8.07045" height="29.2554" fill="white"/>
<rect x="131.93" y="19.9221" width="8.07045" height="8.07045" fill="white"/>
</svg>
