<svg width="49" height="49" viewBox="0 0 49 49" fill="none" xmlns="http://www.w3.org/2000/svg">
<path d="M30.6733 2.63097C31.5369 2.87076 32.1359 3.65572 32.1387 4.5519L32.1388 4.83267C32.1668 14.4264 37.1921 23.3124 45.3986 28.2817L45.6379 28.4272C46.4047 28.8915 46.7693 29.8096 46.5296 30.6733C46.2897 31.5369 45.504 32.1358 44.6077 32.1384L44.3279 32.1388C34.7341 32.1668 25.8472 37.1918 20.8779 45.3983L20.7333 45.6379C20.2691 46.4046 19.3509 46.7692 18.4872 46.5295C17.6235 46.2898 17.0247 45.504 17.0221 44.6077L17.0208 44.3276C16.9928 34.7338 11.9688 25.8472 3.76224 20.8779L3.5217 20.7331C2.75517 20.2687 2.39135 19.3508 2.63099 18.4872C2.87072 17.6236 3.65572 17.0246 4.55193 17.0218L4.83295 17.0208C14.4267 16.9928 23.3124 11.9685 28.2817 3.76196L28.4275 3.52168L28.5197 3.38308C29.0062 2.71218 29.8636 2.40619 30.6733 2.63097Z" fill="#2A2A2A" stroke="white" stroke-width="4" stroke-linejoin="round"/>
</svg>
