<svg width="52" height="76" viewBox="0 0 52 76" fill="none" xmlns="http://www.w3.org/2000/svg">
<path d="M41.9786 3.16095C42.6227 2.56876 43.6017 2.53156 44.2882 3.07394C44.9747 3.61657 45.1659 4.57818 44.7385 5.34175L30.6929 30.4291L47.8435 32.6455C48.5214 32.7332 49.0892 33.2014 49.305 33.8499C49.5207 34.4987 49.3459 35.2146 48.8552 35.6907L10.5141 72.8924C9.87895 73.5087 8.88718 73.5659 8.1862 73.0257C7.48524 72.4854 7.28769 71.512 7.72192 70.7408L22.6965 44.1483L3.80218 42.2913C3.1033 42.2226 2.50979 41.7496 2.28706 41.0836C2.06445 40.4177 2.25394 39.6831 2.7707 39.2078L41.9786 3.16095Z" fill="#2A2A2A" stroke="white" stroke-width="3.56205" stroke-linejoin="round"/>
</svg>
