<svg width="1440" height="810" viewBox="0 0 1440 810" fill="none" xmlns="http://www.w3.org/2000/svg">
<g clip-path="url(#clip0_57_690)">
<path d="M-226.119 71.2432L82.9174 186.241L72.3391 135.756L382.226 254.811L375.614 223.258L690.249 374.257" stroke="#5C1644" stroke-width="6"/>
<path d="M-99.0601 -75.0001L179.824 100.931V49.3488L458.709 229.424V197.186L735.69 409.5" stroke="#5C1644" stroke-width="15.75"/>
<path d="M-254.25 211.603L67.0553 285.705L50.0422 237.01L372.715 315.024L362.081 284.59L693.59 393.667" stroke="#5C1644" stroke-width="15.75"/>
<path d="M-226.119 730.498L82.9174 615.5L72.3391 665.985L382.226 546.93L375.614 578.483L690.249 427.485" stroke="#5C1644" stroke-width="6"/>
<path d="M-99.0601 876.741L179.824 700.811V752.392L458.709 572.317V604.555L735.69 392.241" stroke="#5C1644" stroke-width="15.75"/>
<path d="M-254.25 590.138L67.0553 516.036L50.0422 564.732L372.715 486.717L362.081 517.151L693.59 408.074" stroke="#5C1644" stroke-width="15.75"/>
<path d="M1687.75 71.2432L1378.71 186.241L1389.29 135.756L1079.4 254.811L1086.02 223.258L771.381 374.257" stroke="#5C1644" stroke-width="6"/>
<path d="M1560.69 -75.0001L1281.81 100.931V49.3488L1002.92 229.424V197.186L725.94 409.5" stroke="#5C1644" stroke-width="15.75"/>
<path d="M1715.88 211.603L1394.57 285.705L1411.59 237.01L1088.92 315.024L1099.55 284.59L768.04 393.667" stroke="#5C1644" stroke-width="15.75"/>
<path d="M1687.75 730.498L1378.71 615.5L1389.29 665.985L1079.4 546.93L1086.02 578.483L771.381 427.485" stroke="#5C1644" stroke-width="6"/>
<path d="M1560.69 876.741L1281.81 700.811V752.392L1002.92 572.317V604.555L725.94 392.241" stroke="#5C1644" stroke-width="15.75"/>
<path d="M1715.88 590.138L1394.57 516.036L1411.59 564.732L1088.92 486.717L1099.55 517.151L768.04 408.074" stroke="#5C1644" stroke-width="15.75"/>
<g clip-path="url(#clip1_57_690)">
<mask id="mask0_57_690" style="mask-type:alpha" maskUnits="userSpaceOnUse" x="58" y="486" width="1323" height="202">
<path d="M723.211 572.865L58.6147 687.127V601.947L723.211 486.653L1380.2 599.882V685.685L723.211 572.865Z" fill="black"/>
</mask>
<g mask="url(#mask0_57_690)">
<g clip-path="url(#clip2_57_690)">
<path d="M123.665 289.478V668.336C113.571 670.11 103.469 671.877 93.3755 673.644V284.185C103.469 285.952 113.571 287.719 123.665 289.486V289.478Z" fill="#C2188A"/>
<path d="M135.776 291.6C150.132 294.108 164.481 296.625 178.837 299.133C182.919 343.329 187.048 387.525 191.216 431.714C195.148 473.007 196.929 514.127 197.008 555.601V565.69C199.324 565.493 200.483 565.39 202.799 565.193V556.161C202.886 515.247 204.738 474.734 208.859 434.025C213.279 391.588 217.755 349.158 222.293 306.729C235.728 309.08 249.163 311.43 262.59 313.781V644.017C253.197 645.658 243.805 647.307 234.404 648.947V396.312C231.93 396.099 230.693 395.997 228.211 395.784V443.214C228.124 483.364 226.202 523.095 222.152 563.04C219.055 592.927 215.982 622.822 212.932 652.718C203.887 654.303 194.849 655.881 185.803 657.466C182.659 627.129 179.547 596.784 176.45 566.439C172.195 524.665 170.343 483.088 170.257 441.108V390.87C167.782 390.657 166.545 390.554 164.063 390.341V661.276C154.624 662.925 145.192 664.581 135.752 666.23V291.6H135.776Z" fill="#C2188A"/>
<path d="M274.708 315.911C293.5 319.2 312.285 322.489 331.078 325.771C368.671 332.625 367.419 404.437 367.426 430.68C367.426 454.612 369.57 534.336 331.078 537.104C322.387 537.68 313.696 538.264 305.004 538.84V636.611C294.911 638.377 284.809 640.144 274.715 641.911V315.911H274.708ZM326.595 459.558C337.587 457.476 337.39 439.27 337.397 431.122C337.397 422.603 337.484 405.549 326.595 402.82C317.959 402.071 313.633 401.7 304.997 400.951V459.077C313.633 459.266 317.959 459.361 326.595 459.55V459.558Z" fill="#C2188A"/>
<path d="M397.449 337.389C410.97 339.755 424.492 342.122 438.013 344.488C449.722 432.036 461.92 519.521 474.755 606.904C463.952 608.797 453.157 610.682 442.355 612.575C440.542 598.787 438.746 585.007 436.957 571.219C423.877 572.789 410.789 574.358 397.709 575.928C395.81 591.081 393.927 606.226 392.043 621.378L361.36 626.75C372.912 530.241 384.897 433.78 397.449 337.389ZM429.188 509.606C428.132 501.411 427.604 497.301 426.556 489.05C422.853 459.25 421.001 429.615 420.764 399.585C418.448 399.349 417.29 399.23 414.973 399.002C414.721 429.055 412.641 458.658 408.914 488.482C407.944 495.826 406.975 503.178 406.014 510.521C413.744 510.214 421.466 509.914 429.196 509.606H429.188Z" fill="#C2188A"/>
<path d="M474.227 478.915C474.227 452.971 476.953 342.832 526.642 353.205C555.111 359.144 566.268 394.703 572.604 419.045C564.59 436.044 556.868 453.176 549.296 470.38C548.098 456.592 546.404 418.312 527.17 416.45C505.446 414.344 504.516 466.594 504.516 478.922C504.516 491.251 505.446 543.501 527.17 541.395C546.404 539.533 548.098 501.253 549.296 487.465C556.868 504.669 564.59 521.801 572.604 538.8C566.268 563.142 555.119 598.693 526.642 604.64C476.945 615.013 474.227 504.874 474.227 478.93V478.915Z" fill="#C2188A"/>
<path d="M606.841 583.793V427.966C596.699 427.107 586.558 426.239 576.417 425.379V368.704C606.793 374.021 637.169 379.337 667.545 384.654V433.125C657.404 432.265 647.263 431.398 637.13 430.538V578.492C627.036 580.259 616.934 582.026 606.841 583.793Z" fill="#C2188A"/>
</g>
<g clip-path="url(#clip3_57_690)">
<path d="M771.948 385.948C787.408 383.282 802.868 380.608 818.335 377.941C867.267 370.077 871.869 449.304 871.869 479.546C871.869 509.709 867.189 588.991 818.335 581.048C802.876 578.35 787.416 575.652 771.948 572.947V385.94V385.948ZM818.335 528.53C839.618 529.461 840.855 492.742 840.855 479.514C840.855 466.27 839.697 429.26 818.335 430.167C812.189 430.68 809.108 430.933 802.962 431.445V527.228C809.108 527.749 812.189 528.009 818.335 528.53Z" fill="#C2188A"/>
<path d="M882.514 366.859C911.062 361.929 939.602 357.006 968.149 352.077V414.028C949.987 415.63 931.832 417.231 913.67 418.84V452.924C930.974 452.261 948.285 451.599 965.589 450.944V509.054C948.285 508.344 930.974 507.627 913.67 506.917V540.322C931.832 541.963 949.987 543.604 968.149 545.236V607.188C939.602 602.203 911.062 597.226 882.514 592.241V366.859Z" fill="#C2188A"/>
<path d="M973.941 554.213C982.719 539.1 991.292 523.884 999.7 508.557C1001.72 524.617 1006 556.216 1026.27 558.354C1039.16 559.711 1044.08 544.203 1044.2 533.61C1044.38 518.299 1038.36 510.537 1023.17 509.859C984.61 508.139 978.401 463.367 978.393 433.086C978.385 402.528 985.209 340.907 1024.38 332.57C1054.61 326.133 1068.2 366.945 1073.33 388.503C1064.38 403.561 1055.26 418.517 1045.96 433.362C1043.7 421.822 1039.29 399.609 1023.71 400.501C1012.5 401.147 1008.57 413.531 1008.34 423.163C1008.02 435.839 1015.36 438.954 1026.95 438.355C1072.2 436.004 1075.26 494.17 1075.23 526.921C1075.2 553.187 1070.43 633.565 1025.47 625.441C993.396 619.651 980.694 581.718 973.949 554.205L973.941 554.213Z" fill="#C2188A"/>
<path d="M1115.67 326.622V632.95C1105.33 631.144 1094.99 629.337 1084.66 627.539V331.978C1094.99 330.195 1105.33 328.412 1115.67 326.622Z" fill="#C2188A"/>
<path d="M1126.32 479.798C1126.35 440.011 1129.53 398.749 1141.49 360.217C1147.28 341.593 1157.99 310.12 1179.99 306.137C1210.22 300.663 1221.39 349.418 1226.38 370.069C1219.22 394.829 1211.94 419.55 1204.54 444.239C1214.02 443.9 1223.5 443.56 1232.99 443.221V653.443L1203.19 648.237V576.086C1200.92 575.857 1199.79 575.747 1197.52 575.518C1196.82 587.957 1197.01 657.292 1169.21 651.581C1150.06 647.653 1142.67 614.776 1138.66 599.087C1128.74 560.302 1126.3 519.34 1126.32 479.806V479.798ZM1180.54 570.99C1196.51 572.481 1199.96 532.773 1201.44 521.162C1192 520.752 1182.56 520.342 1173.12 519.924V445.343C1183.41 444.972 1193.71 444.61 1204 444.239C1202.34 432.06 1198.04 391.524 1180.54 393.401C1157.18 395.909 1157.35 463.549 1157.34 479.821C1157.34 496.536 1157.45 568.837 1180.54 570.982V570.99Z" fill="#C2188A"/>
<path d="M1280.19 395.318V391.682C1277.71 391.887 1276.47 391.99 1273.99 392.203V660.59C1264.28 658.894 1254.57 657.198 1244.86 655.502V304.331C1259.1 301.87 1273.36 299.409 1287.6 296.956C1293.12 343.968 1298.56 390.996 1303.92 438.031C1308.7 480.863 1310.71 523.466 1310.8 566.557V570.833C1313.28 571.046 1314.52 571.148 1317 571.361V291.339C1326.71 289.659 1336.42 287.979 1346.12 286.299V673.179C1331.88 670.694 1317.63 668.201 1303.38 665.717C1298.01 617.379 1292.58 569.042 1287.06 520.721C1282.36 478.923 1280.28 437.377 1280.18 395.318H1280.19Z" fill="#C2188A"/>
</g>
</g>
</g>
<g clip-path="url(#clip4_57_690)">
<mask id="mask1_57_690" style="mask-type:alpha" maskUnits="userSpaceOnUse" x="69" y="575" width="1301" height="198">
<path d="M723.152 660.109L69.8203 772.434V688.698L723.152 575.358L1369 686.668V771.017L723.152 660.109Z" fill="black"/>
</mask>
<g mask="url(#mask1_57_690)">
<g clip-path="url(#clip5_57_690)">
<path d="M133.767 381.525V753.962C123.844 755.706 113.914 757.443 103.991 759.18V376.322C113.914 378.059 123.844 379.796 133.767 381.533V381.525Z" fill="#991B6F"/>
<path d="M145.673 383.611C159.786 386.076 173.891 388.55 188.005 391.016C192.017 434.463 196.076 477.91 200.174 521.349C204.039 561.943 205.79 602.366 205.867 643.137V653.055C208.144 652.861 209.283 652.76 211.56 652.567V643.688C211.646 603.467 213.466 563.641 217.517 523.621C221.863 481.903 226.262 440.193 230.724 398.483C243.931 400.794 257.138 403.105 270.337 405.416V730.055C261.104 731.668 251.871 733.288 242.63 734.901V486.548C240.197 486.339 238.981 486.238 236.541 486.029V532.655C236.456 572.124 234.566 611.182 230.585 650.45C227.54 679.83 224.519 709.219 221.522 738.608C212.629 740.166 203.745 741.717 194.852 743.276C191.762 713.453 188.702 683.622 185.658 653.792C181.475 612.725 179.654 571.853 179.569 530.585V481.198C177.137 480.988 175.921 480.888 173.481 480.678V747.021C164.201 748.642 154.929 750.27 145.649 751.891V383.611H145.673Z" fill="#991B6F"/>
<path d="M282.25 407.51C300.725 410.743 319.191 413.977 337.666 417.202C374.622 423.941 373.39 494.535 373.398 520.334C373.398 543.86 375.505 622.232 337.666 624.954C329.122 625.52 320.578 626.094 312.034 626.66V722.774C302.111 724.511 292.181 726.248 282.258 727.985V407.51H282.25ZM333.258 548.722C344.064 546.675 343.87 528.778 343.878 520.768C343.878 512.393 343.963 495.629 333.258 492.946C324.768 492.209 320.516 491.845 312.026 491.108V548.249C320.516 548.435 324.768 548.528 333.258 548.714V548.722Z" fill="#991B6F"/>
<path d="M402.911 428.624C416.203 430.95 429.495 433.276 442.787 435.602C454.298 521.667 466.289 607.669 478.907 693.571C468.287 695.432 457.675 697.285 447.055 699.146C445.274 685.591 443.508 672.045 441.749 658.49C428.891 660.034 416.025 661.577 403.167 663.12C401.3 678.016 399.448 692.904 397.597 707.8L367.434 713.08C378.79 618.207 390.571 523.38 402.911 428.624ZM434.112 597.922C433.074 589.865 432.555 585.825 431.525 577.714C427.884 548.419 426.064 519.286 425.831 489.766C423.554 489.533 422.415 489.417 420.138 489.192C419.89 518.736 417.845 547.837 414.181 577.156C413.229 584.375 412.276 591.602 411.331 598.821C418.93 598.519 426.521 598.224 434.12 597.922H434.112Z" fill="#991B6F"/>
<path d="M478.388 567.75C478.388 542.246 481.068 433.974 529.914 444.171C557.901 450.01 568.869 484.966 575.097 508.895C567.219 525.606 559.628 542.448 552.184 559.36C551.007 545.806 549.341 508.174 530.433 506.344C509.077 504.274 508.163 555.638 508.163 567.758C508.163 579.878 509.077 631.242 530.433 629.172C549.341 627.342 551.007 589.71 552.184 576.156C559.628 593.068 567.219 609.91 575.097 626.62C568.869 650.55 557.908 685.498 529.914 691.345C481.06 701.542 478.388 593.269 478.388 567.766V567.75Z" fill="#991B6F"/>
<path d="M608.753 670.851V517.666C598.784 516.821 588.815 515.968 578.846 515.122V459.408C608.707 464.635 638.568 469.861 668.428 475.087V522.737C658.459 521.892 648.49 521.039 638.529 520.194V665.64C628.606 667.377 618.676 669.114 608.753 670.851Z" fill="#991B6F"/>
</g>
<g clip-path="url(#clip6_57_690)">
<path d="M771.062 476.361C786.26 473.74 801.458 471.111 816.663 468.49C864.766 460.759 869.29 538.643 869.29 568.372C869.29 598.025 864.689 675.962 816.663 668.154C801.466 665.502 786.268 662.85 771.062 660.19V476.353V476.361ZM816.663 616.526C837.585 617.441 838.801 581.345 838.801 568.341C838.801 555.322 837.663 518.939 816.663 519.831C810.621 520.335 807.593 520.583 801.551 521.087V615.247C807.593 615.759 810.621 616.014 816.663 616.526Z" fill="#991B6F"/>
<path d="M879.755 457.595C907.819 452.749 935.875 447.91 963.939 443.063V503.965C946.085 505.539 928.238 507.114 910.383 508.695V542.201C927.393 541.55 944.411 540.899 961.422 540.255V597.381C944.411 596.683 927.393 595.977 910.383 595.279V628.118C928.238 629.731 946.085 631.344 963.939 632.949V693.851C935.875 688.951 907.819 684.058 879.755 679.157V457.595Z" fill="#991B6F"/>
<path d="M969.632 641.774C978.261 626.917 986.689 611.959 994.954 596.892C996.945 612.68 1001.14 643.743 1021.07 645.845C1033.75 647.178 1038.58 631.934 1038.7 621.52C1038.88 606.469 1032.96 598.839 1018.02 598.172C980.12 596.481 974.017 552.468 974.009 522.7C974.001 492.66 980.709 432.084 1019.21 423.887C1048.94 417.56 1062.3 457.68 1067.34 478.873C1058.53 493.675 1049.57 508.378 1040.43 522.971C1038.21 511.627 1033.88 489.791 1018.56 490.667C1007.53 491.303 1003.68 503.477 1003.44 512.945C1003.13 525.406 1010.35 528.469 1021.74 527.879C1066.23 525.569 1069.23 582.748 1069.2 614.944C1069.18 640.766 1064.48 719.781 1020.28 711.795C988.757 706.103 976.271 668.813 969.64 641.766L969.632 641.774Z" fill="#991B6F"/>
<path d="M1108.96 418.04V719.176C1098.8 717.401 1088.63 715.625 1078.47 713.857V423.305C1088.63 421.553 1098.8 419.8 1108.96 418.04Z" fill="#991B6F"/>
<path d="M1119.43 568.62C1119.46 529.507 1122.58 488.945 1134.34 451.066C1140.03 432.758 1150.56 401.818 1172.19 397.902C1201.9 392.521 1212.89 440.45 1217.79 460.751C1210.76 485.091 1203.6 509.393 1196.32 533.664C1205.65 533.33 1214.96 532.997 1224.29 532.663V739.322L1194.99 734.204V663.276C1192.76 663.051 1191.66 662.942 1189.43 662.718C1188.73 674.946 1188.92 743.106 1161.59 737.492C1142.76 733.63 1135.51 701.31 1131.56 685.887C1121.81 647.76 1119.41 607.492 1119.43 568.628V568.62ZM1172.72 658.267C1188.43 659.732 1191.82 620.697 1193.28 609.283C1184 608.88 1174.72 608.477 1165.44 608.066V534.749C1175.55 534.385 1185.68 534.028 1195.79 533.664C1194.16 521.691 1189.94 481.842 1172.72 483.688C1149.77 486.153 1149.93 552.646 1149.92 568.643C1149.92 585.074 1150.03 656.15 1172.72 658.259V658.267Z" fill="#991B6F"/>
<path d="M1270.69 485.572V481.997C1268.25 482.198 1267.03 482.299 1264.59 482.509V746.347C1255.05 744.68 1245.51 743.012 1235.96 741.345V396.126C1249.96 393.707 1263.97 391.288 1277.98 388.876C1283.4 435.091 1288.74 481.322 1294.02 527.561C1298.71 569.666 1300.69 611.547 1300.78 653.908V658.111C1303.22 658.321 1304.44 658.421 1306.88 658.631V383.355C1316.42 381.703 1325.96 380.052 1335.51 378.4V758.723C1321.5 756.28 1307.5 753.83 1293.49 751.387C1288.21 703.869 1282.87 656.351 1277.44 608.849C1272.82 567.759 1270.77 526.917 1270.68 485.572H1270.69Z" fill="#991B6F"/>
</g>
</g>
</g>
<g clip-path="url(#clip7_57_690)">
<mask id="mask2_57_690" style="mask-type:alpha" maskUnits="userSpaceOnUse" x="69" y="20" width="1301" height="198">
<path d="M723.152 132.375L69.8203 20.0503V103.787L723.152 217.127L1369 105.817V21.4676L723.152 132.375Z" fill="black"/>
</mask>
<g mask="url(#mask2_57_690)">
<g clip-path="url(#clip8_57_690)">
<path d="M133.767 46.3448V418.781C123.844 420.526 113.914 422.263 103.991 424V41.1417C113.914 42.8786 123.844 44.6156 133.767 46.3525V46.3448Z" fill="#991B6F"/>
<path d="M145.673 48.4305C159.786 50.8963 173.891 53.3699 188.005 55.8358C192.017 99.2828 196.076 142.73 200.174 186.169C204.039 226.763 205.79 267.185 205.867 307.957V317.875C208.144 317.681 209.283 317.58 211.56 317.386V308.508C211.646 268.287 213.466 228.461 217.517 188.441C221.863 146.723 226.262 105.013 230.724 63.3031C243.931 65.6139 257.138 67.9246 270.337 70.2354V394.875C261.104 396.487 251.871 398.108 242.63 399.721V151.368C240.197 151.159 238.981 151.058 236.541 150.849V197.475C236.456 236.944 234.566 276.002 230.585 315.269C227.54 344.65 224.519 374.039 221.522 403.427C212.629 404.986 203.745 406.537 194.852 408.095C191.762 378.273 188.702 348.442 185.658 318.612C181.475 277.545 179.654 236.672 179.569 195.404V146.018C177.137 145.808 175.921 145.707 173.481 145.498V411.841C164.201 413.461 154.929 415.09 145.649 416.71V48.4305H145.673Z" fill="#991B6F"/>
<path d="M282.25 72.3292C300.725 75.5627 319.191 78.7962 337.666 82.022C374.622 88.7604 373.39 159.355 373.398 185.153C373.398 208.68 375.505 287.052 337.666 289.774C329.122 290.34 320.578 290.913 312.034 291.48V387.593C302.111 389.33 292.181 391.067 282.258 392.804V72.3292H282.25ZM333.258 213.542C344.064 211.495 343.87 193.598 343.878 185.588C343.878 177.213 343.963 160.448 333.258 157.765C324.768 157.029 320.516 156.664 312.026 155.928V213.069C320.516 213.255 324.768 213.348 333.258 213.534V213.542Z" fill="#991B6F"/>
<path d="M402.911 93.4437C416.203 95.7699 429.495 98.0962 442.787 100.422C454.298 186.487 466.289 272.489 478.907 358.391C468.287 360.252 457.675 362.105 447.055 363.966C445.274 350.412 443.508 336.865 441.749 323.31C428.891 324.854 416.025 326.397 403.167 327.94C401.3 342.836 399.448 357.724 397.597 372.62L367.434 377.9C378.79 283.027 390.571 188.201 402.911 93.4437ZM434.112 262.742C433.074 254.685 432.555 250.645 431.525 242.535C427.884 213.239 426.064 184.106 425.831 154.586C423.554 154.353 422.415 154.237 420.138 154.012C419.89 183.556 417.845 212.657 414.181 241.976C413.229 249.195 412.276 256.422 411.331 263.642C418.93 263.339 426.521 263.045 434.12 262.742H434.112Z" fill="#991B6F"/>
<path d="M478.388 232.57C478.388 207.067 481.068 98.7942 529.914 108.991C557.901 114.83 568.869 149.786 575.097 173.716C567.219 190.426 559.628 207.268 552.184 224.18C551.007 210.626 549.341 172.995 530.433 171.165C509.077 169.094 508.163 220.458 508.163 232.578C508.163 244.698 509.077 296.062 530.433 293.992C549.341 292.162 551.007 254.53 552.184 240.976C559.628 257.888 567.219 274.73 575.097 291.441C568.869 315.37 557.908 350.319 529.914 356.165C481.06 366.362 478.388 258.09 478.388 232.586V232.57Z" fill="#991B6F"/>
<path d="M608.753 335.671V182.485C598.784 181.64 588.815 180.787 578.846 179.942V124.228C608.707 129.454 638.568 134.681 668.428 139.907V187.557C658.459 186.712 648.49 185.859 638.529 185.013V330.46C628.606 332.197 618.676 333.934 608.753 335.671Z" fill="#991B6F"/>
</g>
<g clip-path="url(#clip9_57_690)">
<path d="M771.062 141.179C786.26 138.558 801.458 135.93 816.663 133.309C864.766 125.578 869.29 203.461 869.29 233.191C869.29 262.843 864.689 340.781 816.663 332.973C801.466 330.321 786.268 327.669 771.062 325.009V141.171V141.179ZM816.663 281.345C837.585 282.26 838.801 246.164 838.801 233.16C838.801 220.141 837.663 183.758 816.663 184.65C810.621 185.154 807.593 185.402 801.551 185.906V280.065C807.593 280.577 810.621 280.833 816.663 281.345Z" fill="#991B6F"/>
<path d="M879.755 122.413C907.819 117.567 935.875 112.728 963.939 107.882V168.784C946.085 170.358 928.238 171.932 910.383 173.514V207.02C927.393 206.369 944.411 205.717 961.422 205.074V262.199C944.411 261.501 927.393 260.796 910.383 260.098V292.937C928.238 294.55 946.085 296.163 963.939 297.768V358.67C935.875 353.769 907.819 348.876 879.755 343.975V122.413Z" fill="#991B6F"/>
<path d="M969.632 306.592C978.261 291.735 986.689 276.777 994.954 261.711C996.945 277.499 1001.14 308.562 1021.07 310.663C1033.75 311.997 1038.58 296.752 1038.7 286.338C1038.88 271.287 1032.96 263.657 1018.02 262.99C980.12 261.3 974.017 217.287 974.009 187.518C974.001 157.478 980.709 96.9022 1019.21 88.706C1048.94 82.3785 1062.3 122.499 1067.34 143.691C1058.53 158.494 1049.57 173.196 1040.43 187.79C1038.21 176.445 1033.88 154.609 1018.56 155.486C1007.53 156.121 1003.68 168.296 1003.44 177.763C1003.13 190.225 1010.35 193.287 1021.74 192.698C1066.23 190.387 1069.23 247.567 1069.2 279.763C1069.18 305.584 1064.48 384.6 1020.28 376.613C988.757 370.922 976.271 333.631 969.64 306.585L969.632 306.592Z" fill="#991B6F"/>
<path d="M1108.96 82.8591V383.995C1098.8 382.219 1088.63 380.444 1078.47 378.676V88.1242C1088.63 86.3717 1098.8 84.6193 1108.96 82.8591Z" fill="#991B6F"/>
<path d="M1119.43 233.439C1119.46 194.326 1122.58 153.764 1134.34 115.885C1140.03 97.5768 1150.56 66.6374 1172.19 62.7215C1201.9 57.34 1212.89 105.269 1217.79 125.57C1210.76 149.91 1203.6 174.212 1196.32 198.483C1205.65 198.149 1214.96 197.816 1224.29 197.482V404.141L1194.99 399.023V328.095C1192.76 327.87 1191.66 327.761 1189.43 327.537C1188.73 339.765 1188.92 407.925 1161.59 402.311C1142.76 398.449 1135.51 366.129 1131.56 350.706C1121.81 312.579 1119.41 272.311 1119.43 233.447V233.439ZM1172.72 323.086C1188.43 324.551 1191.82 285.516 1193.28 274.102C1184 273.699 1174.72 273.296 1165.44 272.885V199.568C1175.55 199.204 1185.68 198.847 1195.79 198.483C1194.16 186.51 1189.94 146.661 1172.72 148.507C1149.77 150.973 1149.93 217.465 1149.92 233.462C1149.92 249.893 1150.03 320.969 1172.72 323.078V323.086Z" fill="#991B6F"/>
<path d="M1270.69 150.391V146.816C1268.25 147.018 1267.03 147.119 1264.59 147.328V411.166C1255.05 409.499 1245.51 407.832 1235.96 406.165V60.9456C1249.96 58.5263 1263.97 56.107 1277.98 53.6954C1283.4 99.9107 1288.74 146.142 1294.02 192.38C1298.71 234.486 1300.69 276.366 1300.78 318.728V322.931C1303.22 323.14 1304.44 323.241 1306.88 323.45V48.1744C1316.42 46.5227 1325.96 44.8711 1335.51 43.2194V423.542C1321.5 421.099 1307.5 418.649 1293.49 416.206C1288.21 368.688 1282.87 321.17 1277.44 273.668C1272.82 232.578 1270.77 191.736 1270.68 150.391H1270.69Z" fill="#991B6F"/>
</g>
</g>
</g>
<mask id="mask3_57_690" style="mask-type:alpha" maskUnits="userSpaceOnUse" x="58" y="93" width="1323" height="201">
<path d="M723.21 207.291L58.7422 93.0516V178.215L723.21 293.487L1380.07 180.28V94.4931L723.21 207.291Z" fill="black"/>
</mask>
<g mask="url(#mask3_57_690)">
<g clip-path="url(#clip10_57_690)">
<path d="M123.779 119.794V498.579C113.688 500.353 103.588 502.12 93.4961 503.887V114.503C103.588 116.269 113.688 118.036 123.779 119.802V119.794Z" fill="#C2188A"/>
<path d="M135.888 121.916C150.242 124.423 164.588 126.939 178.941 129.447C183.022 173.635 187.15 217.822 191.318 262.002C195.249 303.287 197.03 344.399 197.108 385.866V395.953C199.424 395.756 200.583 395.653 202.899 395.456V386.426C202.985 345.519 204.837 305.015 208.957 264.313C213.376 221.884 217.851 179.463 222.389 137.042C235.821 139.392 249.253 141.742 262.677 144.092V474.265C253.287 475.905 243.896 477.554 234.498 479.194V226.608C232.024 226.395 230.787 226.292 228.305 226.079V273.5C228.219 313.642 226.297 353.366 222.247 393.303C219.151 423.185 216.079 453.074 213.03 482.964C203.986 484.549 194.95 486.126 185.906 487.711C182.762 457.38 179.651 427.041 176.554 396.702C172.3 354.936 170.449 313.366 170.362 271.395V221.166C167.889 220.953 166.652 220.851 164.17 220.638V491.52C154.732 493.169 145.302 494.825 135.864 496.473V121.916H135.888Z" fill="#C2188A"/>
<path d="M274.793 146.222C293.583 149.51 312.364 152.799 331.153 156.08C368.739 162.933 367.487 234.731 367.495 260.969C367.495 284.897 369.637 364.605 331.153 367.373C322.464 367.948 313.774 368.532 305.085 369.108V466.86C294.993 468.626 284.893 470.393 274.801 472.16V146.222H274.793ZM326.67 289.841C337.66 287.759 337.463 269.557 337.471 261.411C337.471 252.893 337.558 235.843 326.67 233.114C318.036 232.365 313.711 231.994 305.077 231.245V289.36C313.711 289.55 318.036 289.644 326.67 289.833V289.841Z" fill="#C2188A"/>
<path d="M397.51 167.696C411.029 170.062 424.548 172.428 438.066 174.794C449.773 262.325 461.969 349.794 474.802 437.159C464.001 439.052 453.208 440.937 442.407 442.83C440.595 429.044 438.799 415.267 437.011 401.481C423.933 403.051 410.848 404.62 397.77 406.189C395.872 421.339 393.989 436.481 392.106 451.631L361.429 457.002C372.978 360.511 384.96 264.068 397.51 167.696ZM429.243 339.88C428.187 331.686 427.66 327.578 426.612 319.328C422.909 289.534 421.058 259.904 420.821 229.881C418.505 229.644 417.347 229.526 415.031 229.297C414.779 259.344 412.699 288.942 408.973 318.761C408.004 326.103 407.035 333.453 406.074 340.795C413.802 340.488 421.523 340.188 429.251 339.88H429.243Z" fill="#C2188A"/>
<path d="M474.274 309.194C474.274 283.256 477 173.138 526.679 183.509C555.143 189.447 566.298 224.999 572.632 249.336C564.62 266.332 556.899 283.461 549.329 300.661C548.131 286.876 546.437 248.603 527.207 246.742C505.487 244.636 504.558 296.876 504.558 309.202C504.558 321.529 505.487 373.768 527.207 371.663C546.437 369.801 548.131 331.529 549.329 317.743C556.899 334.943 564.62 352.073 572.632 369.068C566.298 393.405 555.151 428.95 526.679 434.896C476.992 445.267 474.274 335.149 474.274 309.21V309.194Z" fill="#C2188A"/>
<path d="M606.862 414.052V258.256C596.722 257.396 586.583 256.529 576.444 255.669V199.005C606.814 204.321 637.184 209.636 667.554 214.952V263.414C657.415 262.554 647.276 261.687 637.145 260.827V408.752C627.053 410.519 616.953 412.286 606.862 414.052Z" fill="#C2188A"/>
</g>
<g clip-path="url(#clip11_57_690)">
<path d="M771.938 216.245C787.395 213.58 802.851 210.906 818.316 208.241C867.239 200.378 871.84 279.589 871.84 309.826C871.84 339.983 867.16 419.25 818.316 411.308C802.859 408.611 787.403 405.914 771.938 403.209V216.237V216.245ZM818.316 358.8C839.595 359.731 840.832 323.019 840.832 309.794C840.832 296.553 839.674 259.55 818.316 260.457C812.171 260.969 809.091 261.222 802.946 261.734V357.499C809.091 358.019 812.171 358.28 818.316 358.8Z" fill="#C2188A"/>
<path d="M882.482 197.16C911.025 192.231 939.559 187.31 968.101 182.381V244.321C949.942 245.922 931.791 247.523 913.632 249.131V283.209C930.932 282.546 948.241 281.884 965.541 281.229V339.328C948.241 338.619 930.932 337.901 913.632 337.191V370.59C931.791 372.231 949.942 373.871 968.101 375.503V437.443C939.559 432.459 911.025 427.483 882.482 422.499V197.16Z" fill="#C2188A"/>
<path d="M973.892 384.478C982.668 369.368 991.24 354.155 999.645 338.832C1001.67 354.888 1005.94 386.481 1026.21 388.619C1039.1 389.975 1044.01 374.47 1044.14 363.879C1044.32 348.571 1038.3 340.811 1023.11 340.133C984.559 338.414 978.351 293.65 978.343 263.374C978.335 232.822 985.158 171.214 1024.32 162.878C1054.55 156.442 1068.14 197.247 1073.27 218.8C1064.31 233.855 1055.19 248.808 1045.9 263.65C1043.64 252.113 1039.23 229.904 1023.65 230.796C1012.44 231.442 1008.52 243.824 1008.28 253.453C1007.96 266.127 1015.31 269.242 1026.89 268.642C1072.13 266.292 1075.19 324.447 1075.16 357.191C1075.13 383.453 1070.36 463.816 1025.41 455.693C993.343 449.904 980.644 411.978 973.9 384.47L973.892 384.478Z" fill="#C2188A"/>
<path d="M1115.59 156.931V463.2C1105.26 461.394 1094.92 459.588 1084.59 457.79V162.286C1094.92 160.504 1105.26 158.721 1115.59 156.931Z" fill="#C2188A"/>
<path d="M1126.25 310.078C1126.27 270.298 1129.45 229.045 1141.41 190.519C1147.19 171.9 1157.91 140.433 1179.9 136.45C1210.12 130.977 1221.29 179.723 1226.28 200.37C1219.13 225.125 1211.85 249.841 1204.44 274.526C1213.93 274.186 1223.41 273.847 1232.89 273.508V483.689L1203.1 478.484V406.347C1200.83 406.118 1199.7 406.008 1197.43 405.779C1196.72 418.216 1196.92 487.538 1169.12 481.828C1149.97 477.901 1142.59 445.03 1138.58 429.344C1128.66 390.566 1126.22 349.612 1126.25 310.085V310.078ZM1180.45 401.252C1196.42 402.743 1199.87 363.043 1201.35 351.434C1191.91 351.024 1182.47 350.614 1173.03 350.196V275.63C1183.32 275.259 1193.62 274.896 1203.91 274.526C1202.25 262.349 1197.95 221.821 1180.45 223.698C1157.1 226.205 1157.26 293.832 1157.25 310.101C1157.25 326.813 1157.36 399.099 1180.45 401.245V401.252Z" fill="#C2188A"/>
<path d="M1280.08 225.614V221.978C1277.6 222.183 1276.36 222.286 1273.88 222.499V490.834C1264.17 489.139 1254.47 487.443 1244.75 485.747V134.644C1259 132.184 1273.25 129.723 1287.49 127.27C1293.01 174.273 1298.44 221.292 1303.81 268.319C1308.58 311.142 1310.59 353.737 1310.69 396.82V401.095C1313.17 401.308 1314.4 401.41 1316.89 401.623V121.655C1326.59 119.975 1336.3 118.296 1346 116.616V503.421C1331.76 500.937 1317.52 498.445 1303.27 495.96C1297.9 447.632 1292.46 399.304 1286.95 350.992C1282.25 309.202 1280.17 267.664 1280.07 225.614H1280.08Z" fill="#C2188A"/>
</g>
</g>
<g clip-path="url(#clip12_57_690)">
<path d="M113.791 198.142V583.275C103.53 585.079 93.2609 586.875 83 588.671V192.761C93.2609 194.557 103.53 196.353 113.791 198.15V198.142Z" fill="#FF4DC4"/>
<path d="M126.103 200.298C140.697 202.848 155.283 205.406 169.878 207.956C174.027 252.884 178.224 297.813 182.462 342.733C186.459 384.71 188.269 426.511 188.349 468.673V478.928C190.704 478.728 191.882 478.624 194.236 478.423V469.242C194.325 427.65 196.207 386.466 200.396 345.082C204.89 301.942 209.44 258.81 214.053 215.678C227.711 218.068 241.368 220.457 255.017 222.847V558.553C245.469 560.221 235.921 561.897 226.365 563.565V306.745C223.85 306.529 222.592 306.425 220.069 306.208V354.424C219.981 395.238 218.026 435.628 213.909 476.234C210.761 506.617 207.637 537.007 204.537 567.398C195.342 569.009 186.154 570.613 176.959 572.225C173.763 541.385 170.599 510.538 167.451 479.69C163.125 437.224 161.243 394.958 161.155 352.283V301.212C158.64 300.996 157.382 300.892 154.859 300.675V576.098C145.263 577.774 135.675 579.458 126.079 581.133V200.298H126.103Z" fill="#FF4DC4"/>
<path d="M267.336 225.012C286.44 228.356 305.536 231.699 324.64 235.035C362.856 242.003 361.583 315.005 361.591 341.682C361.591 366.011 363.769 447.055 324.64 449.869C315.805 450.455 306.97 451.048 298.135 451.633V551.024C287.874 552.82 277.605 554.616 267.344 556.412V225.012H267.336ZM320.082 371.039C331.256 368.922 331.056 350.415 331.064 342.131C331.064 333.471 331.152 316.135 320.082 313.361C311.303 312.599 306.906 312.222 298.127 311.46V370.549C306.906 370.742 311.303 370.838 320.082 371.03V371.039Z" fill="#FF4DC4"/>
<path d="M392.11 246.846C405.855 249.252 419.6 251.657 433.346 254.063C445.249 343.061 457.648 431.996 470.697 520.826C459.715 522.75 448.741 524.666 437.759 526.591C435.917 512.574 434.09 498.566 432.272 484.549C418.975 486.145 405.671 487.741 392.374 489.337C390.443 504.74 388.529 520.136 386.615 535.54L355.423 541C367.166 442.893 379.349 344.834 392.11 246.846ZM424.374 421.916C423.301 413.585 422.764 409.407 421.699 401.02C417.934 370.726 416.052 340.6 415.811 310.073C413.456 309.832 412.279 309.712 409.924 309.48C409.668 340.03 407.553 370.124 403.764 400.442C402.779 407.908 401.794 415.381 400.817 422.846C408.674 422.534 416.524 422.229 424.382 421.916H424.374Z" fill="#FF4DC4"/>
<path d="M470.16 390.716C470.16 364.343 472.932 252.379 523.443 262.924C552.384 268.962 563.726 305.11 570.166 329.855C562.02 347.135 554.17 364.551 546.472 382.04C545.255 368.023 543.533 329.109 523.98 327.217C501.896 325.076 500.951 378.191 500.951 390.724C500.951 403.257 501.896 456.372 523.98 454.231C543.533 452.339 545.255 413.425 546.472 399.408C554.17 416.897 562.02 434.313 570.166 451.593C563.726 476.339 552.392 512.478 523.443 518.524C472.924 529.069 470.16 417.105 470.16 390.732V390.716Z" fill="#FF4DC4"/>
<path d="M604.97 497.331V338.924C594.661 338.05 584.352 337.168 574.043 336.294V278.68C604.922 284.085 635.801 289.489 666.68 294.894V344.168C656.371 343.294 646.062 342.412 635.761 341.538V491.943C625.5 493.739 615.231 495.535 604.97 497.331Z" fill="#FF4DC4"/>
</g>
<g clip-path="url(#clip13_57_690)">
<path d="M772.812 296.209C788.528 293.499 804.244 290.78 819.968 288.07C869.711 280.076 874.388 360.614 874.388 391.358C874.388 422.021 869.63 502.616 819.968 494.541C804.252 491.798 788.536 489.056 772.812 486.306V296.201V296.209ZM819.968 441.153C841.603 442.099 842.861 404.773 842.861 391.326C842.861 377.862 841.683 340.239 819.968 341.161C813.72 341.682 810.588 341.939 804.34 342.46V439.83C810.588 440.359 813.72 440.624 819.968 441.153Z" fill="#FF4DC4"/>
<path d="M885.21 276.804C914.231 271.792 943.244 266.789 972.264 261.777V324.755C953.801 326.383 935.346 328.011 916.882 329.647V364.295C934.473 363.621 952.071 362.948 969.661 362.282V421.355C952.071 420.634 934.473 419.904 916.882 419.182V453.141C935.346 454.809 953.801 456.477 972.264 458.137V521.115C943.244 516.047 914.231 510.987 885.21 505.919V276.804Z" fill="#FF4DC4"/>
<path d="M978.151 467.261C987.075 451.898 995.79 436.43 1004.34 420.85C1006.39 437.176 1010.74 469.298 1031.35 471.471C1044.45 472.85 1049.45 457.086 1049.58 446.317C1049.76 430.753 1043.64 422.862 1028.19 422.173C988.997 420.425 982.685 374.911 982.677 344.128C982.669 313.064 989.606 250.423 1029.42 241.947C1060.16 235.404 1073.98 276.892 1079.19 298.807C1070.08 314.114 1060.82 329.318 1051.36 344.409C1049.06 332.677 1044.59 310.097 1028.74 311.003C1017.34 311.661 1013.36 324.25 1013.12 334.041C1012.8 346.926 1020.26 350.094 1032.04 349.484C1078.04 347.095 1081.15 406.224 1081.11 439.517C1081.09 466.219 1076.23 547.928 1030.53 539.669C997.928 533.784 985.016 495.222 978.159 467.253L978.151 467.261Z" fill="#FF4DC4"/>
<path d="M1122.23 235.901V547.303C1111.72 545.467 1101.21 543.631 1090.7 541.802V241.346C1101.21 239.534 1111.72 237.721 1122.23 235.901Z" fill="#FF4DC4"/>
<path d="M1133.06 391.614C1133.08 351.168 1136.32 309.223 1148.48 270.052C1154.36 251.12 1165.25 219.126 1187.62 215.077C1218.34 209.512 1229.7 259.075 1234.77 280.068C1227.5 305.238 1220.1 330.368 1212.57 355.466C1222.21 355.122 1231.85 354.777 1241.49 354.432V568.136L1211.2 562.843V489.497C1208.89 489.265 1207.74 489.152 1205.44 488.92C1204.72 501.565 1204.92 572.049 1176.65 566.243C1157.19 562.25 1149.68 528.828 1145.6 512.879C1135.52 473.452 1133.03 431.811 1133.06 391.622V391.614ZM1188.17 484.317C1204.4 485.833 1207.91 445.467 1209.42 433.664C1199.82 433.247 1190.23 432.83 1180.63 432.405V356.589C1191.09 356.212 1201.56 355.843 1212.02 355.466C1210.33 343.086 1205.97 301.878 1188.17 303.787C1164.43 306.337 1164.59 375.096 1164.59 391.638C1164.59 408.63 1164.7 482.128 1188.17 484.309V484.317Z" fill="#FF4DC4"/>
<path d="M1289.47 305.735V302.038C1286.95 302.247 1285.69 302.351 1283.17 302.568V575.4C1273.3 573.676 1263.43 571.952 1253.55 570.228V213.241C1268.04 210.739 1282.53 208.237 1297.01 205.743C1302.62 253.534 1308.14 301.341 1313.6 349.156C1318.45 392.697 1320.5 436.005 1320.59 479.811V484.157C1323.11 484.373 1324.37 484.477 1326.9 484.694V200.034C1336.76 198.326 1346.63 196.618 1356.5 194.91V588.198C1342.02 585.672 1327.54 583.138 1313.05 580.612C1307.59 531.474 1302.06 482.336 1296.46 433.215C1291.67 390.724 1289.56 348.49 1289.46 305.735H1289.47Z" fill="#FF4DC4"/>
</g>
<path d="M650.377 430.743V378.301H686.937C697.051 378.301 703.119 382.871 703.119 390.512C703.119 398.079 696.676 402.649 687.311 402.649H682.816V405.945H688.81C698.174 405.945 704.617 410.365 704.617 418.157C704.617 425.873 698.549 430.743 688.435 430.743H650.377ZM667.608 417.482H682.142C685.289 417.482 686.787 416.209 686.787 414.111C686.787 412.163 685.289 410.815 682.142 410.815H667.608V417.482ZM667.608 397.554H681.693C684.09 397.554 685.289 396.356 685.289 394.558C685.289 392.685 684.165 391.561 681.693 391.561H667.608V397.554ZM725.755 430.743V413.062L703.055 378.301H722.833L728.077 387.066C731.748 393.284 732.872 397.33 732.872 404.672V404.372H736.243V404.821C736.243 397.629 737.367 393.659 741.263 387.366L747.031 378.301H765.686L742.986 414.111V430.743H725.755Z" fill="#FF4DC4"/>
</g>
<defs>
<clipPath id="clip0_57_690">
<rect width="1440" height="810" fill="white"/>
</clipPath>
<clipPath id="clip1_57_690">
<rect width="1252.27" height="198.1" fill="white" transform="translate(93.6123 486.905)"/>
</clipPath>
<clipPath id="clip2_57_690">
<rect width="574.177" height="411.711" fill="white" transform="translate(93.3755 273.055)"/>
</clipPath>
<clipPath id="clip3_57_690">
<rect width="574.177" height="411.711" fill="white" transform="translate(771.948 273.055)"/>
</clipPath>
<clipPath id="clip4_57_690">
<rect width="1231.05" height="194.742" fill="white" transform="translate(104.225 575.605)"/>
</clipPath>
<clipPath id="clip5_57_690">
<rect width="564.445" height="404.733" fill="white" transform="translate(103.991 365.381)"/>
</clipPath>
<clipPath id="clip6_57_690">
<rect width="564.445" height="404.733" fill="white" transform="translate(771.062 365.381)"/>
</clipPath>
<clipPath id="clip7_57_690">
<rect width="1231.5" height="169.5" fill="white" transform="translate(104 40)"/>
</clipPath>
<clipPath id="clip8_57_690">
<rect width="564.445" height="404.733" fill="white" transform="translate(103.991 30.2002)"/>
</clipPath>
<clipPath id="clip9_57_690">
<rect width="564.445" height="404.733" fill="white" transform="translate(771.062 30.2002)"/>
</clipPath>
<clipPath id="clip10_57_690">
<rect width="574.066" height="411.632" fill="white" transform="translate(93.4961 103.375)"/>
</clipPath>
<clipPath id="clip11_57_690">
<rect width="574.066" height="411.632" fill="white" transform="translate(771.938 103.375)"/>
</clipPath>
<clipPath id="clip12_57_690">
<rect width="583.688" height="418.531" fill="white" transform="translate(83 181.447)"/>
</clipPath>
<clipPath id="clip13_57_690">
<rect width="583.688" height="418.531" fill="white" transform="translate(772.812 181.447)"/>
</clipPath>
</defs>
</svg>
